<svg xmlns="http://www.w3.org/2000/svg" width="253.023" height="81.773" viewBox="0 0 253.023 81.773"><g transform="translate(-18985.475 -49)"><circle cx="9.128" cy="9.128" r="9.128" transform="translate(18985.475 81.584)" fill="#fff"/><circle cx="9.128" cy="9.128" r="9.128" transform="translate(19054.963 81.664)" fill="#fff"/><path d="M580.661-715.035v-7.1a11.317,11.317,0,0,0-11.317-11.316v34.1A27.132,27.132,0,0,1,580.661-715.035Z" transform="translate(18453.297 782.448)" fill="#fff"/><path d="M653.489-540.178a13.405,13.405,0,0,1-9.815,4.263,13.386,13.386,0,0,1-8.968-3.445v13.081a24.7,24.7,0,0,0,8.968,1.681,24.769,24.769,0,0,0,23.492-16.932,10.21,10.21,0,0,1-7.585,3.374A10.188,10.188,0,0,1,653.489-540.178Z" transform="translate(18404.51 639.198)" fill="#fff"/><path d="M429.732-535.068V-503.6a11.317,11.317,0,0,0,11.317-11.316v-6.539C436.262-524.655,431.774-527.592,429.732-535.068Z" transform="translate(18557.506 634.374)" fill="#fff"/><path d="M442.691-653.037a13.412,13.412,0,0,1,11.009-5.752,13.4,13.4,0,0,1,8.541,3.06v-12.864A24.721,24.721,0,0,0,453.7-670.1a24.771,24.771,0,0,0-23.968,18.531A10.21,10.21,0,0,1,437.1-654.7,10.194,10.194,0,0,1,442.691-653.037Z" transform="translate(18557.506 735.168)" fill="#fff"/><path d="M467.54-549.178a12.994,12.994,0,0,1-11.491,7.555,13.4,13.4,0,0,1-10.131-4.628,10.2,10.2,0,0,1-6.472,2.305,10.2,10.2,0,0,1-6.566-2.383,24.769,24.769,0,0,0,23.17,16.022c7.579,0,14.9-2.994,18.9-8.769a28.728,28.728,0,0,0,3.443-6.674Z" transform="translate(18555.158 644.906)" fill="#fff"/><path d="M598.931-670.1a24.708,24.708,0,0,0-18.9,8.763,24.68,24.68,0,0,0-5.273,10.66l1.955.528h0l5.063,1.368h0l3.9,1.053c.022-.1.046-.2.071-.292,1.75-6.016,6.674-10.762,13.182-10.762a13.412,13.412,0,0,1,10.84,5.511,10.188,10.188,0,0,1,5.067-1.348,10.228,10.228,0,0,1,8.352,4.322A24.767,24.767,0,0,0,598.931-670.1Z" transform="translate(18449.254 735.168)" fill="#fff"/><path d="M600.951-576.173l-1.489-.466,1.82-4.327a.472.472,0,0,1,.524-.416h0a.473.473,0,0,1,.416.524Z" transform="translate(18430.816 668.945)" fill="#fff"/><path d="M583.947-566.162a7.7,7.7,0,0,0-.511,2.7A10.313,10.313,0,0,0,583.947-566.162Z" transform="translate(18442.787 657.583)" fill="#fff"/><path d="M583.409-568.751s.249-.939-.162-1.265a3.177,3.177,0,0,1-.5-.829,12.618,12.618,0,0,1,.359-1.611,7.226,7.226,0,0,0,.309-1.939l-.4-1.987s-.063-.9,1.041-.844c.442.023.726.665.726.665l.7,2.265a3.086,3.086,0,0,1,1.346.983s.935,1.473.334,2.518c0,0-.722.75-.675,1.145l-.385,1.841Z" transform="translate(18443.291 665.843)" fill="#fff"/><path d="M589.427-590.83l2.733.808a2.958,2.958,0,0,0,.709,1.719s.6.488.139,1.593a6.837,6.837,0,0,0,.43,3.988c.713,1.441-1.446,2.118-1.957-.05a2.862,2.862,0,0,0-1.578-1.676l-.7-2.265a1.322,1.322,0,0,0-.53-.613A8.775,8.775,0,0,0,589.427-590.83Z" transform="translate(18438.873 675.995)" fill="#fff"/><path d="M602.617-560.078s.685.455.473,1.044a.556.556,0,0,1-.723.369,1.165,1.165,0,0,1-.645-.877Z" transform="translate(18429.129 653.042)" fill="#fff"/><path d="M584.93-574.844s-.587-.717-.182-1.132c0,0,1.047-.91,1.186.849Z" transform="translate(18441.906 665.084)" fill="#fff"/><path d="M582.4-552.069s-.387,1.251.3,1.325c0,0,.628,0,.249-.465A2.579,2.579,0,0,1,582.4-552.069Z" transform="translate(18443.637 647.064)" fill="#fff"/><path d="M3.9-9.308V-16.64H7.566c3.068,0,4.264,1.352,4.264,3.692,0,2.236-1.2,3.64-4.264,3.64Zm9.8-3.64c0-2.99-1.924-5.226-6.136-5.226H2.08V0H3.9V-7.748H7.566C11.83-7.748,13.7-10.01,13.7-12.948ZM15.7,0h1.82V-7.748c0-3.458,1.846-5.122,4.5-5.122,2.6,0,4.316,1.612,4.316,4.758V0h1.794V-8.32c0-4.16-2.522-6.136-5.668-6.136a5.343,5.343,0,0,0-4.94,2.678V-19.24H15.7ZM30.29-7.124c0,4.446,2.886,7.332,6.76,7.332a6,6,0,0,0,5.642-3.354V0h1.82V-14.2h-1.82v3.12A5.925,5.925,0,0,0,37.076-14.4C33.176-14.4,30.29-11.57,30.29-7.124Zm12.4.026c0,3.536-2.366,5.72-5.278,5.72-2.99,0-5.278-2.158-5.278-5.746,0-3.614,2.288-5.694,5.278-5.694C40.326-12.818,42.692-10.634,42.692-7.1Zm6.76-.832c0-3.562,2-4.628,4.368-4.628h.494v-1.9c-2.444,0-4.082,1.04-4.862,2.782V-14.2h-1.82V0h1.82ZM76.752,0h1.794V-8.32c0-4.16-2.5-6.136-5.642-6.136a5.171,5.171,0,0,0-5.122,3.484,5.246,5.246,0,0,0-5.252-3.484,5.07,5.07,0,0,0-4.706,2.7V-14.2H56V0h1.82V-7.7c0-3.458,1.794-5.174,4.394-5.174,2.522,0,4.186,1.612,4.186,4.758V0H68.2V-7.7c0-3.458,1.82-5.174,4.394-5.174,2.522,0,4.16,1.612,4.16,4.758ZM80.7-7.124c0,4.446,2.886,7.332,6.76,7.332a6,6,0,0,0,5.642-3.354V0h1.82V-14.2h-1.82v3.12A5.925,5.925,0,0,0,87.49-14.4C83.59-14.4,80.7-11.57,80.7-7.124Zm12.4.026c0,3.536-2.366,5.72-5.278,5.72-2.99,0-5.278-2.158-5.278-5.746,0-3.614,2.288-5.694,5.278-5.694C90.74-12.818,93.106-10.634,93.106-7.1Z" transform="translate(19079.615 99)" fill="#fff"/><path d="M12.74-4.888c0,2.7-1.95,4.368-5.278,4.368H2.73V-9.256H7.41C10.738-9.256,12.74-7.54,12.74-4.888Zm-.416-8.944c0,2.47-1.612,4.056-4.706,4.056H2.73v-8.008H7.462C10.894-17.784,12.324-16.12,12.324-13.832Zm.936,8.944A4.639,4.639,0,0,0,9.438-9.516a4.151,4.151,0,0,0,3.406-4.316c0-2.5-1.56-4.472-5.382-4.472H2.21V0H7.462C11.414,0,13.26-2.184,13.26-4.888ZM15.08-7.02c0,4.472,2.808,7.2,6.838,7.2A6.3,6.3,0,0,0,28.262-4.29V0h.494V-14.04h-.494v4.29a6.3,6.3,0,0,0-6.344-4.472C17.888-14.222,15.08-11.492,15.08-7.02Zm13.182,0c0,4.056-2.678,6.734-6.344,6.734C18.07-.286,15.6-2.834,15.6-7.02s2.47-6.734,6.318-6.734C25.584-13.754,28.262-11.076,28.262-7.02ZM32.63-9.75v-9.49h-.494V0h.494V-4.29A6.32,6.32,0,0,0,38.974.182c4.03,0,6.838-2.73,6.838-7.2s-2.808-7.2-6.838-7.2A6.365,6.365,0,0,0,32.63-9.75ZM45.292-7.02c0,4.186-2.47,6.734-6.318,6.734-3.666,0-6.344-2.678-6.344-6.734s2.678-6.734,6.344-6.734C42.822-13.754,45.292-11.206,45.292-7.02Zm2.6,0c0,4.472,2.808,7.2,6.838,7.2A6.3,6.3,0,0,0,61.074-4.29V0h.494V-14.04h-.494v4.29a6.3,6.3,0,0,0-6.344-4.472C50.7-14.222,47.892-11.492,47.892-7.02Zm13.182,0c0,4.056-2.678,6.734-6.344,6.734-3.848,0-6.318-2.548-6.318-6.734s2.47-6.734,6.318-6.734C58.4-13.754,61.074-11.076,61.074-7.02Z" transform="translate(19176.93 99)" fill="#fff"/></g></svg>