<svg xmlns="http://www.w3.org/2000/svg" xmlns:xlink="http://www.w3.org/1999/xlink" width="450.026" height="391" viewBox="0 0 450.026 391"><defs><linearGradient id="a" x1="1.147" y1="-0.497" x2="1.124" y2="1" gradientUnits="objectBoundingBox"><stop offset="0" stop-color="#8f28e9"/><stop offset="1" stop-color="#6f05cb"/></linearGradient></defs><g transform="translate(-30.987 -121)"><path d="M479.42,249.29l-60-120c-2.9-5.1-6.983-8.29-13.42-8.29H106c-6.272,0-10.466,3.112-13.42,8.29l-60,120a14.918,14.918,0,0,0,2.11,16.56l210,241a14.994,14.994,0,0,0,22.62,0l210-241A14.919,14.919,0,0,0,479.42,249.29ZM381.73,151l-38.29,76.58L286,151ZM316,241H196l60-80Zm-90-90-57.44,76.58L130.27,151ZM106,169.54,141.73,241H70.27ZM78.97,271h77.12l73.95,173.38ZM256,428.77,188.71,271H323.29Zm25.96,15.61L355.91,271h77.12ZM370.27,241,406,169.54,441.73,241Z" fill="url(#a)"/></g></svg>