<svg xmlns="http://www.w3.org/2000/svg" xmlns:xlink="http://www.w3.org/1999/xlink" width="453.374" height="305.074" viewBox="0 0 453.374 305.074"><defs><linearGradient id="a" x1="0.5" x2="0.5" y2="1" gradientUnits="objectBoundingBox"><stop offset="0" stop-color="#ffd34e"/><stop offset="1" stop-color="#ffc000"/></linearGradient></defs><path d="M435.535,139.662a12.679,12.679,0,0,1-.336,3.778L407.235,255.3a12.716,12.716,0,0,1-12.267,9.628l-167.791.847H59.32a12.71,12.71,0,0,1-12.333-9.64L19.021,143.852a12.691,12.691,0,0,1-.334-3.88,26.71,26.71,0,1,1,24.955-4.856l35.012,35.277a47.519,47.519,0,0,0,71.625-4.844l57.54-76.241a26.709,26.709,0,1,1,38.146-.451c.015.02.034.037.049.059l57.123,76.452a47.68,47.68,0,0,0,38.024,19.055,47.152,47.152,0,0,0,33.563-13.9l35.233-35.233a26.694,26.694,0,1,1,25.577,4.374ZM404.506,305.605a12.712,12.712,0,0,0-12.711-12.711H62.993a12.712,12.712,0,0,0-12.711,12.711v30.507a12.712,12.712,0,0,0,12.711,12.711h328.8a12.712,12.712,0,0,0,12.711-12.711Z" transform="translate(0 -43.75)" fill="url(#a)"/></svg>