<svg xmlns="http://www.w3.org/2000/svg" width="19.423" height="17" viewBox="0 0 19.423 17">
  <g id="diamond_1_" data-name="diamond (1)" transform="translate(0 -3.392)">
    <path id="Path_7091" data-name="Path 7091" d="M.285,19.392,8.818,29.985,4.948,19.392Z" transform="translate(-0.183 -10.286)" fill="#fafafa"/>
    <path id="Path_7092" data-name="Path 7092" d="M15.472,19.392,19.6,30.678l4.2-11.286Z" transform="translate(-9.947 -10.286)" fill="#fafafa"/>
    <path id="Path_7093" data-name="Path 7093" d="M29.593,30.259l8.753-10.867H33.641Z" transform="translate(-19.025 -10.286)" fill="#fafafa"/>
    <path id="Path_7094" data-name="Path 7094" d="M34.817,3.392H29.3L33.082,8.05Z" transform="translate(-18.835)" fill="#fafafa"/>
    <path id="Path_7095" data-name="Path 7095" d="M24.081,8.769l-3.892-4.79L16.3,8.769Z" transform="translate(-10.477 -0.377)" fill="#fafafa"/>
    <path id="Path_7096" data-name="Path 7096" d="M15.149,3.392H9.625l1.714,4.69Z" transform="translate(-6.188)" fill="#fafafa"/>
    <path id="Path_7097" data-name="Path 7097" d="M2.842,4.658,0,9.205H4.5Z" transform="translate(0 -0.814)" fill="#fafafa"/>
    <path id="Path_7098" data-name="Path 7098" d="M46.215,9.2,43.37,4.645,41.674,9.2Z" transform="translate(-26.792 -0.806)" fill="#fafafa"/>
  </g>
</svg>
