<svg xmlns="http://www.w3.org/2000/svg" width="60" height="55.599" viewBox="0 0 60 55.599"><g transform="translate(0 -11.011)"><path d="M59.918,32.022a1.661,1.661,0,0,0-1.342-1.1L39.857,28.341,31.434,11.907a1.675,1.675,0,0,0-1.49-.9h0a1.664,1.664,0,0,0-1.49.908L20.141,28.4,1.423,31.1A1.661,1.661,0,0,0,.081,32.2,1.564,1.564,0,0,0,.512,33.85L14.095,46.627l-3.14,18.095a1.572,1.572,0,0,0,.665,1.578,1.678,1.678,0,0,0,.973.311,1.619,1.619,0,0,0,.776-.191l16.711-8.593,16.76,8.5a1.743,1.743,0,0,0,.764.179h0a1.647,1.647,0,0,0,1.662-1.613,1.226,1.226,0,0,0-.049-.37L45.977,46.531l13.5-12.848A1.549,1.549,0,0,0,59.918,32.022Zm-16.871,12.8a1.566,1.566,0,0,0-.468,1.434L45.4,61.948,30.843,54.574a1.73,1.73,0,0,0-1.552,0L14.784,62.032l2.722-15.716a1.583,1.583,0,0,0-.48-1.422L5.253,33.8,21.5,31.46a1.647,1.647,0,0,0,1.244-.884L29.956,16.27l7.315,14.27a1.689,1.689,0,0,0,1.256.884l16.255,2.247Z" transform="translate(0)" fill="#d9b310"/></g></svg>