<svg xmlns="http://www.w3.org/2000/svg" width="57.257" height="754.826" viewBox="0 0 57.257 754.826">
  <g id="Group_118" data-name="Group 118" transform="translate(-431 -222)">
    <path id="Path_1" data-name="Path 1" d="M74.233,41.791l-.126-.127a2.86,2.86,0,0,0-2.017-2.017l-3.621-3.621a2.76,2.76,0,0,0,.028-.3,3.8,3.8,0,0,0-2.858-3.687V19.432A4.764,4.764,0,0,0,64.687,10a4.712,4.712,0,0,0-4.635,3.746,2.732,2.732,0,0,0-.476.344L40.714,30.855a4.759,4.759,0,0,0-7.374,2.964,2.751,2.751,0,0,0-2.623,2.486L27.638,61.451H22.764v5.716H51.347V61.451H44.678V39.774l18.293-20.58a4.712,4.712,0,0,0,.762.222V32.039a3.8,3.8,0,0,0-2.858,3.687,2.815,2.815,0,0,0,.026.3l-3.62,3.621a2.86,2.86,0,0,0-2.019,2.019l-.126.127.1-.012a2.8,2.8,0,0,0-.073.612v5.871l1.219,3.657h4.5V42.79l3.3-3.3a3.136,3.136,0,0,0,1.032,0L68.5,42.79v9.134H73l1.219-3.657V42.4a2.761,2.761,0,0,0-.076-.615Zm-2.052,1.08a.985.985,0,0,1-1.294.338.885.885,0,0,1-.357-.34.953.953,0,0,1,.826-1.428c.041,0,.081.005.122.01a.953.953,0,0,1,.831.942A.941.941,0,0,1,72.181,42.871ZM64.687,11.9a2.859,2.859,0,1,1-2.859,2.858c0-.088.008-.183.017-.271A2.831,2.831,0,0,1,64.687,11.9ZM38.009,31.914a2.842,2.842,0,1,1-2.025.832A2.858,2.858,0,0,1,38.009,31.914ZM49.442,63.356v1.905H24.67v-1.9H49.442Zm-11.433-1.9H36.1V46.206h1.9Zm4.764,0H39.914V44.3H34.2V61.451H29.557l3.049-24.906a.856.856,0,0,1,.733-.819c0,.017.012.032.016.05a4.762,4.762,0,0,0,.247.793c.037.09.086.173.129.261a4.719,4.719,0,0,0,.276.509c.062.1.13.18.2.271a4.545,4.545,0,0,0,.337.409c.08.084.164.164.249.243a4.754,4.754,0,0,0,.4.332c.1.069.19.136.286.2a4.839,4.839,0,0,0,.47.255c.1.05.2.1.305.143a5.082,5.082,0,0,0,.566.177c.1.023.185.057.286.075a4.68,4.68,0,0,0,4.184-1.23c.049-.046.1-.1.14-.142a4.758,4.758,0,0,0,.381-.447c.028-.039.061-.075.088-.114a4.825,4.825,0,0,0,.364-.611c.025-.049.046-.1.069-.151a4.691,4.691,0,0,0,.207-.535c.011-.031.026-.059.036-.09a1.155,1.155,0,0,1,.079.118.718.718,0,0,1,.05.1.942.942,0,0,1,.069.344V61.451Zm1.905-24.544v-.229a2.82,2.82,0,0,0-.053-.527c-.01-.055-.027-.106-.039-.159a2.682,2.682,0,0,0-.107-.34c-.021-.058-.044-.111-.07-.167a2.484,2.484,0,0,0-.166-.3c-.028-.047-.055-.1-.086-.138a2.858,2.858,0,0,0-.293-.356c-.009-.009-.017-.021-.027-.032a2.845,2.845,0,0,0-.388-.32c-.04-.027-.084-.052-.126-.077a2.869,2.869,0,0,0-.318-.173c-.053-.024-.107-.046-.162-.067s-.091-.042-.139-.058a.31.31,0,0,0-.015-.052,4.857,4.857,0,0,0-.138-.5c-.039-.128-.065-.26-.114-.381a4.707,4.707,0,0,0-.254-.5,3.2,3.2,0,0,0-.146-.286L60.128,16.15c.023.075.055.146.082.22.032.1.063.181.1.27s.087.183.133.273.089.179.139.266.1.16.158.239.115.177.18.261.118.138.177.206c.072.083.143.168.221.246.01.01.017.021.027.031ZM62.99,34.856a1.905,1.905,0,0,1,3.6.869.963.963,0,0,1-.017.208l-.016.1a.805.805,0,0,1-.02.129,1.667,1.667,0,0,1-.09.286,1.035,1.035,0,0,1-.084.178l-.044.083c-.024.039-.057.085-.106.151a1.576,1.576,0,0,1-.333.349,2.152,2.152,0,0,1-.229.162,1.615,1.615,0,0,1-.209.1.989.989,0,0,1-.151.06l-.134.037a.5.5,0,0,1-.12.029l-.11.016a1.152,1.152,0,0,1-.482,0l-.111-.016a.531.531,0,0,1-.119-.029l-.148-.05H64.04l-.012,0a1.172,1.172,0,0,1-.161-.074,1.152,1.152,0,0,1-.208-.111,1.655,1.655,0,0,1-.19-.143,1.574,1.574,0,0,1-.351-.386.775.775,0,0,1-.05-.067l-.058-.109a1.173,1.173,0,0,1-.1-.221,1.77,1.77,0,0,1-.078-.257.83.83,0,0,1-.015-.11l-.016-.1a.951.951,0,0,1-.024-.212A1.917,1.917,0,0,1,62.99,34.856Zm-4.972,6.586a.953.953,0,0,1,.953.953.943.943,0,0,1-.128.477.985.985,0,0,1-1.294.338.885.885,0,0,1-.357-.34.95.95,0,0,1,.694-1.416A.966.966,0,0,1,58.018,41.442Zm.952,8.575H57.751l-.687-2.061V45.092c.044.015.1.021.136.034s.107.028.162.041a3.009,3.009,0,0,0,.589.077c.022,0,.043.009.066.009s.043-.007.065-.009a2.989,2.989,0,0,0,.589-.077c.055-.013.109-.025.162-.041s.1-.02.136-.034v4.925ZM60.3,40.672c-.053-.068-.116-.128-.174-.19-.039-.042-.074-.089-.115-.129a2.765,2.765,0,0,0-.352-.286l-.047-.038L61.634,38a3.872,3.872,0,0,0,.251.305c.021.022.038.049.059.071a2.937,2.937,0,0,0,.347.313Zm7.083-2.258c.022-.023.051-.044.072-.067a2.793,2.793,0,0,0,.287-.354l2.025,2.025c-.016.012-.031.027-.047.038a2.837,2.837,0,0,0-.352.286c-.041.04-.076.086-.115.129-.058.063-.121.123-.173.19l-1.992-1.984A3.487,3.487,0,0,0,67.38,38.414Zm4.929,9.543-.687,2.061H70.4V45.093c.044.015.1.021.136.034s.107.028.162.041a3.009,3.009,0,0,0,.589.077c.022,0,.043.009.066.009s.043-.007.065-.009a2.989,2.989,0,0,0,.589-.077c.055-.013.109-.025.162-.041s.1-.02.136-.034v2.864Z" transform="translate(414.024 212)" fill="#d9b310"/>
    <g id="Group_35" data-name="Group 35" transform="translate(414.024 212)">
      <g id="Group_2" data-name="Group 2">
        <g id="Group_1" data-name="Group 1">
          <path id="Path_3" data-name="Path 3" d="M55.976,109.138a.662.662,0,0,0-.033-.079.857.857,0,0,0-.054-.129c-.019-.027-.039-.055-.061-.081a.644.644,0,0,0-.076-.1,13.172,13.172,0,0,1-.168-.136L46.8,103.348a.878.878,0,0,0-.9,0l-8.778,5.267a.578.578,0,0,0-.092.071.641.641,0,0,0-.083.065.825.825,0,0,0-.076.1c-.022.026-.042.053-.062.081a.894.894,0,0,0-.052.125c-.013.029-.024.057-.034.085a.758.758,0,0,0-.03.227v8.779a.879.879,0,0,0,.425.752l8.778,5.267.011,0,.009.007a.751.751,0,0,0,.144.059.57.57,0,0,0,.062.024.861.861,0,0,0,.456,0c.021-.006.041-.017.061-.024a.8.8,0,0,0,.143-.059l.009-.007.01,0L55.58,118.9a.876.876,0,0,0,.426-.752v-8.779A.928.928,0,0,0,55.976,109.138Zm-9.625-4.015,2.682,1.61-7.071,4.243-2.683-1.61Zm-.878,16.738-7.022-4.215v-6.73l7.022,4.214Zm.878-8.252L43.668,112l7.071-4.243,2.682,1.609Zm7.9,4.038-7.022,4.214V115.13l7.022-4.214Z" fill="#d9b310"/>
        </g>
      </g>
      <g id="Group_4" data-name="Group 4">
        <g id="Group_3" data-name="Group 3">
          <path id="Path_4" data-name="Path 4" d="M47.052,87.772a.91.91,0,0,0-1.28-.125.862.862,0,0,0-.124.125l-2.634,3.511,1.4,1.054,1.054-1.4v7.023h1.756V90.932l1.053,1.4,1.4-1.054Z" fill="#d9b310"/>
        </g>
      </g>
      <g id="Group_6" data-name="Group 6">
        <g id="Group_5" data-name="Group 5">
          <path id="Path_5" data-name="Path 5" d="M48.281,135.172l-1.053,1.406v-7.022H45.472v7.022l-1.054-1.406-1.4,1.054,2.634,3.512a.878.878,0,0,0,1.229.176.912.912,0,0,0,.175-.176l2.633-3.512Z" fill="#d9b310"/>
        </g>
      </g>
      <g id="Group_8" data-name="Group 8">
        <g id="Group_7" data-name="Group 7">
          <rect id="Rectangle_1" data-name="Rectangle 1" width="1.756" height="1.756" transform="translate(45.473 99.71)" fill="#d9b310"/>
        </g>
      </g>
      <g id="Group_10" data-name="Group 10">
        <g id="Group_9" data-name="Group 9">
          <rect id="Rectangle_2" data-name="Rectangle 2" width="1.756" height="1.756" transform="translate(45.473 126.044)" fill="#d9b310"/>
        </g>
      </g>
      <g id="Group_12" data-name="Group 12">
        <g id="Group_11" data-name="Group 11">
          <path id="Path_6" data-name="Path 6" d="M30.549,112.877H23.527l1.405-1.053-1.053-1.4-3.511,2.633a.877.877,0,0,0-.176,1.229.917.917,0,0,0,.176.176l3.511,2.633,1.053-1.4-1.405-1.054h7.022Z" fill="#d9b310"/>
        </g>
      </g>
      <g id="Group_14" data-name="Group 14">
        <g id="Group_13" data-name="Group 13">
          <path id="Path_7" data-name="Path 7" d="M72.508,113.229a.885.885,0,0,0-.175-.176l-3.511-2.633-1.054,1.4,1.4,1.053H62.15v1.756h7.022l-1.4,1.054,1.054,1.4,3.511-2.633A.877.877,0,0,0,72.508,113.229Z" fill="#d9b310"/>
        </g>
      </g>
      <g id="Group_16" data-name="Group 16">
        <g id="Group_15" data-name="Group 15">
          <rect id="Rectangle_3" data-name="Rectangle 3" width="1.754" height="1.756" transform="translate(32.306 112.877)" fill="#d9b310"/>
        </g>
      </g>
      <g id="Group_18" data-name="Group 18">
        <g id="Group_17" data-name="Group 17">
          <rect id="Rectangle_4" data-name="Rectangle 4" width="1.756" height="1.756" transform="translate(58.639 112.877)" fill="#d9b310"/>
        </g>
      </g>
      <g id="Group_20" data-name="Group 20">
        <g id="Group_19" data-name="Group 19">
          <path id="Path_8" data-name="Path 8" d="M35.8,101.962,30.834,97l1.736.248.249-1.738-4.344-.624a.877.877,0,0,0-1,.738.858.858,0,0,0,0,.258l.621,4.344,1.739-.248-.249-1.737,4.965,4.965Z" fill="#d9b310"/>
        </g>
      </g>
      <g id="Group_22" data-name="Group 22">
        <g id="Group_21" data-name="Group 21">
          <path id="Path_9" data-name="Path 9" d="M65.222,131.631l-.621-4.344-1.739.25.247,1.736-4.966-4.965L56.9,125.551l4.964,4.964-1.735-.249L59.882,132l4.346.622a1.035,1.035,0,0,0,.125.008.877.877,0,0,0,.876-.878A.859.859,0,0,0,65.222,131.631Z" fill="#d9b310"/>
        </g>
      </g>
      <g id="Group_24" data-name="Group 24">
        <g id="Group_23" data-name="Group 23">
          <rect id="Rectangle_5" data-name="Rectangle 5" width="1.755" height="1.755" transform="translate(38.282 104.445) rotate(135)" fill="#d9b310"/>
        </g>
      </g>
      <g id="Group_26" data-name="Group 26">
        <g id="Group_25" data-name="Group 25">
          <rect id="Rectangle_6" data-name="Rectangle 6" width="1.756" height="1.755" transform="matrix(-0.707, 0.707, -0.707, -0.707, 56.905, 123.062)" fill="#d9b310"/>
        </g>
      </g>
      <g id="Group_28" data-name="Group 28">
        <g id="Group_27" data-name="Group 27">
          <path id="Path_10" data-name="Path 10" d="M30.829,130.514l4.966-4.966-1.238-1.242-4.965,4.966.247-1.737-1.738-.249-.624,4.344a.879.879,0,0,0,.745.994,1.018,1.018,0,0,0,.124.008,1.051,1.051,0,0,0,.125-.008L32.815,132l-.25-1.737Z" fill="#d9b310"/>
        </g>
      </g>
      <g id="Group_30" data-name="Group 30">
        <g id="Group_29" data-name="Group 29">
          <path id="Path_11" data-name="Path 11" d="M64.971,95.134a.87.87,0,0,0-.746-.248l-4.344.621.248,1.738L61.866,97,56.9,101.963l1.241,1.241,4.966-4.965-.247,1.735,1.737.25.62-4.344A.873.873,0,0,0,64.971,95.134Z" fill="#d9b310"/>
        </g>
      </g>
      <g id="Group_32" data-name="Group 32">
        <g id="Group_31" data-name="Group 31">
          <rect id="Rectangle_7" data-name="Rectangle 7" width="1.755" height="1.755" transform="matrix(-0.707, 0.707, -0.707, -0.707, 38.28, 123.072)" fill="#d9b310"/>
        </g>
      </g>
      <g id="Group_34" data-name="Group 34">
        <g id="Group_33" data-name="Group 33">
          <rect id="Rectangle_8" data-name="Rectangle 8" width="1.756" height="1.755" transform="matrix(-0.707, 0.707, -0.707, -0.707, 56.904, 104.439)" fill="#d9b310"/>
        </g>
      </g>
    </g>
    <g id="Group_71" data-name="Group 71" transform="translate(417.024 217.852)">
      <path id="Path_21" data-name="Path 21" d="M64.247,173.794a17.112,17.112,0,0,0-15.065-16.963l-4.452-5.481a4.813,4.813,0,0,0-3.746-1.782H35.207a4.826,4.826,0,0,0-3.725,7.895l3.544,4.3c-.3.3-.589.609-.866.933l-.535.626,2.952,2.953a12.884,12.884,0,0,0,3.775,18.938H21.469v-.891H19.687v.891H17.013V187h2.674v.891h1.782V187h5.348v3.564H23.251V196.8a2.677,2.677,0,0,0,2.675,2.674h.891v2.674a2.677,2.677,0,0,0,2.674,2.674h1.782a2.678,2.678,0,0,0,2.675-2.674v-2.674H53.554v2.674a2.677,2.677,0,0,0,2.674,2.674h1.783a2.677,2.677,0,0,0,2.674-2.674v-2.674h.892A2.677,2.677,0,0,0,64.25,196.8V185.216h-4.4A17.053,17.053,0,0,0,64.247,173.794Zm-31.39-17.463a3.045,3.045,0,0,1,2.35-4.981h5.778a3.027,3.027,0,0,1,2.361,1.126l3.44,4.233a17.343,17.343,0,0,0-2.149.181L41.963,153.6a1.254,1.254,0,0,0-.977-.464H35.208a1.262,1.262,0,0,0-.974,2.063l3.549,4.31a16.744,16.744,0,0,0-1.438,1.059Zm9.816.968a16.986,16.986,0,0,0-3.331,1.3l-3.033-3.68h4.427Zm-6.609,5.947A15.3,15.3,0,1,1,57.7,184.881l-8.9-8.9-.627.546a2.643,2.643,0,0,1-1.748.671,2.677,2.677,0,0,1-2.674-2.674,2.65,2.65,0,0,1,.669-1.749l.547-.626Zm19.45,21.971H53.4a12.937,12.937,0,0,0,1.266-.849Zm-19.787-11.14a11.164,11.164,0,0,1,2.122-6.526l4.733,4.733a4.417,4.417,0,0,0-.617,2.239,4.461,4.461,0,0,0,4.456,4.456,4.415,4.415,0,0,0,2.238-.616l4.733,4.733a11.129,11.129,0,0,1-17.665-9.019ZM32.163,187h14.26v-.022c.149,0,.3.022.446.022a12.936,12.936,0,0,0,4.9-.979v4.544H32.163ZM28.6,187h1.782v3.564H28.6Zm3.564,15.151a.891.891,0,0,1-.892.891H29.49a.891.891,0,0,1-.891-.891v-2.674h3.564Zm26.736,0a.891.891,0,0,1-.891.891H56.226a.892.892,0,0,1-.892-.891v-2.674H58.9ZM62.465,187v9.8a.893.893,0,0,1-.892.892H25.925a.893.893,0,0,1-.892-.892v-4.456H53.553V187h8.912Z" fill="#d9b310"/>
    </g>
    <g id="Group_75" data-name="Group 75" transform="translate(414.024 212)">
      <path id="Path_23" data-name="Path 23" d="M44.4,252.578V237.6l-12.194-6.564L20.015,237.6v14.98l12.194,6.566Zm-11.322,4.116V244.739l9.581-5.159v11.953Zm8.614-18.575-9.486,5.107-9.486-5.107,9.486-5.107Zm-19.937,1.459,9.581,5.161v11.955l-9.581-5.161Z" fill="#d9b310"/>
      <path id="Path_24" data-name="Path 24" d="M60.082,255.421l-12.194,6.563v14.981l12.194,6.566,12.194-6.566V261.984Zm9.485,7.087-9.485,5.107L50.6,262.508l9.486-5.107Zm-19.938,1.457,9.581,5.162v11.955l-9.581-5.161Zm11.323,17.117V269.127l9.581-5.158v11.952Z" fill="#d9b310"/>
      <path id="Path_25" data-name="Path 25" d="M66.178,243.346v7.478l-.977-.977-1.231,1.231,3.079,3.08,3.079-3.08L68.9,249.847l-.976.977v-7.478a6.1,6.1,0,0,0-6.1-6.1H47.887v1.741H61.823A4.361,4.361,0,0,1,66.178,243.346Z" fill="#d9b310"/>
      <path id="Path_26" data-name="Path 26" d="M26.113,271.218V263.74l.976.977,1.231-1.232-3.079-3.08-3.079,3.08,1.231,1.232.977-.977v7.478a6.1,6.1,0,0,0,6.1,6.1H44.4v-1.742H30.467A4.36,4.36,0,0,1,26.113,271.218Z" fill="#d9b310"/>
      <path id="Path_27" data-name="Path 27" d="M48.758,257.281a2.613,2.613,0,1,0-2.613,2.613A2.612,2.612,0,0,0,48.758,257.281Zm-2.612.871a.871.871,0,1,1,.871-.871A.871.871,0,0,1,46.146,258.152Z" fill="#d9b310"/>
    </g>
    <path id="Path_33" data-name="Path 33" d="M68.493,314.773l3.689-3.69-7.032-7.032-3.69,3.689,1.074,1.073-4.251,4.251-2.327-2.327-3.689,3.689H44.488l-1.672,5.015H32.553a4.184,4.184,0,0,0-4.179,4.18v5.85H25.983l-.381,2.543a5.134,5.134,0,0,0-.571-.035,5.013,5.013,0,0,0-.915,9.942l-.651,4.341a4.18,4.18,0,0,0-3.449,4.106v2.507h3.526l.836,3.343H30.7l.836-3.343h22.1l.836,3.343h6.32l.836-3.343h3.527v-2.507a4.185,4.185,0,0,0-4.18-4.18H58.464v-3.343H43.418v3.343H33.388V337.83h3.344v-3l3.343-3.344v-1.527l-2.928-2.928,3.222-2.576h2.448l1.672,5.014h1.438v5.016h10.03v-5.016H57.4l1.672-5.014h3.577v-1.326l2.853-2.854-2.327-2.326,4.25-4.252Zm-3.343-8.359,4.668,4.669-1.325,1.325-4.669-4.668ZM45.693,316.1h8.245l3.343,3.343h-12.7Zm-15.648,7.522a2.511,2.511,0,0,1,2.507-2.508h6.687v2.105L35.6,326.127H30.045Zm5.016,4.179v5.015H30.046V327.8Zm-7.64,3.343h.952v2.123a4.989,4.989,0,0,0-1.153-.777Zm-5.734,5.85a3.343,3.343,0,1,1,3.343,3.343A3.347,3.347,0,0,1,21.687,336.993Zm7.706,17.553h-3.71l-.418-1.672H29.81Zm30.089,0h-3.71l-.418-1.672H59.9Zm4-4.179v.836H21.687v-.836a2.511,2.511,0,0,1,2.508-2.508H60.97A2.511,2.511,0,0,1,63.478,350.367ZM45.09,344.516h11.7v1.672H45.09Zm-13.373,1.672H25.165l.637-4.244a5.019,5.019,0,0,0,4.168-4.114h1.747v8.358Zm-1.672-10.03v-1.672H35.06v1.672ZM38.4,330.8l-1.672,1.672v-3.487l1.672,1.671Zm2.507-9.684H58.953l1.671,1.672H40.911Zm13.373,11.7H47.6V329.47h6.686Zm1.9-5.014H45.693l-1.114-3.343H57.3Zm5.618-6.2-7.176-7.177,1.326-1.325,7.176,7.176Zm.18-4.836-2.523-2.523,4.251-4.25,2.523,2.523Z" transform="translate(414.024 212)" fill="#d9b310"/>
    <g id="Group_78" data-name="Group 78" transform="translate(414.024 212)">
      <g id="Group_77" data-name="Group 77">
        <path id="Path_35" data-name="Path 35" d="M64.537,482.46h-1.97a.765.765,0,0,0,0,1.529h1.97a.765.765,0,0,0,0-1.529Z" fill="#d9b310"/>
      </g>
    </g>
    <g id="Group_80" data-name="Group 80" transform="translate(414.024 212)">
      <g id="Group_79" data-name="Group 79">
        <path id="Path_36" data-name="Path 36" d="M68.046,479.811V477.3a1.274,1.274,0,0,0-1.273-1.273H60.331a1.274,1.274,0,0,0-1.273,1.273s0,1.233,0,1.27a1.794,1.794,0,0,0-1.617-1.023H55.615V472.2a1.784,1.784,0,0,0-1.783-1.781H29.341a1.783,1.783,0,0,0-1.782,1.781v5.337H25.732a1.8,1.8,0,0,0-1.8,1.8v7.487H22.643V468.665h2.866a1.275,1.275,0,0,0,1.274-1.273v-2.938a.764.764,0,0,0-1.529,0v2.684H18.5V458.4h6.751v2.284a.764.764,0,0,0,1.529,0v-2.539a1.275,1.275,0,0,0-1.274-1.273h-7.26a1.275,1.275,0,0,0-1.273,1.273v9.247a1.274,1.274,0,0,0,1.273,1.273h2.866v18.165h-2.09a1.275,1.275,0,0,0-1.273,1.274v1.382a1.275,1.275,0,0,0,1.273,1.273l9.711-.008a1.284,1.284,0,0,0,1.282-1.283v-1.328H46.925a.765.765,0,1,0,0-1.529H30.019V482.9H53.154v3.713H51a.765.765,0,0,0,0,1.529h2.153v1.328a1.284,1.284,0,0,0,1.282,1.283H60.16a1.274,1.274,0,0,0,1.273-1.273v-1.352h4.236v1.352a1.274,1.274,0,0,0,1.273,1.273h.918a1.274,1.274,0,0,0,1.273-1.273v-8.4A1.282,1.282,0,0,0,68.046,479.811Zm-44.114,9.418H19.28v-.871h4.652v.871Zm4.559-.006H25.459v-9.881a.276.276,0,0,1,.272-.272h2.487a.276.276,0,0,1,.272.272v9.881Zm8.7-7.853H33.128v-4.028h4.067Zm13.264,0H46.392v-4.028h4.067Zm3.627-3.6a1.8,1.8,0,0,0-.932,1.577v2.028H51.987v-4.283a1.275,1.275,0,0,0-1.273-1.273H46.137a1.275,1.275,0,0,0-1.273,1.273v4.283H42.351v-4.389a.764.764,0,1,0-1.528,0v4.389h-2.1v-4.283a1.275,1.275,0,0,0-1.274-1.273H32.874a1.274,1.274,0,0,0-1.273,1.273v4.283H30.02v-2.028a1.8,1.8,0,0,0-.933-1.576v-5.56a.259.259,0,0,1,.254-.256H40.822v1.67a.764.764,0,1,0,1.528,0v-1.67H53.831a.258.258,0,0,1,.254.254v5.561Zm3.627,11.458H54.681v-9.881a.276.276,0,0,1,.272-.272H57.44a.276.276,0,0,1,.273.272v9.881Zm2.872-11.673h5.933v.441H60.585Zm0,1.971h5.933v.273H60.585Zm-.68,9.7H59.5v-1.1H59.9Zm7.7,0H67.2v-1.1h.408Zm0-2.624H59.5v-.634h8.109Zm0-2.162H59.5v-3.114h8.109Z" fill="#d9b310"/>
      </g>
    </g>
    <g id="Group_82" data-name="Group 82" transform="translate(414.024 212)">
      <g id="Group_81" data-name="Group 81">
        <path id="Path_37" data-name="Path 37" d="M53.034,451.495h-22.9a1.306,1.306,0,0,0-1.3,1.3v12.644a1.306,1.306,0,0,0,1.3,1.3h22.9a1.306,1.306,0,0,0,1.3-1.3V452.8A1.308,1.308,0,0,0,53.034,451.495Zm-.223,13.725H30.362v-12.2H52.81v12.2Z" fill="#d9b310"/>
      </g>
    </g>
    <g id="Group_84" data-name="Group 84" transform="translate(414.024 212)">
      <g id="Group_83" data-name="Group 83">
        <path id="Path_38" data-name="Path 38" d="M61.3,467.624c-1.125-.354-1.228-.459-1.581-1.6a1.034,1.034,0,0,0-1.978,0c-.352,1.142-.455,1.247-1.581,1.6a1.039,1.039,0,0,0,0,1.981c1.126.354,1.229.46,1.58,1.6a1.034,1.034,0,0,0,1.979,0c.352-1.142.455-1.247,1.58-1.6a1.039,1.039,0,0,0,0-1.981Zm-2.569,1.958a.967.967,0,0,1,0-1.934.967.967,0,0,1,0,1.934Z" fill="#d9b310"/>
      </g>
    </g>
    <g id="Group_86" data-name="Group 86" transform="translate(414.024 212)">
      <g id="Group_85" data-name="Group 85">
        <path id="Path_39" data-name="Path 39" d="M65.281,456.421c-1.271-.4-1.406-.537-1.8-1.828a1.063,1.063,0,0,0-2.034,0c-.4,1.29-.532,1.427-1.8,1.827a1.07,1.07,0,0,0,0,2.039c1.272.4,1.407.537,1.8,1.825a1.064,1.064,0,0,0,2.035,0c.4-1.29.532-1.427,1.8-1.827a1.07,1.07,0,0,0,0-2.039Zm-2.82,2.258a2.618,2.618,0,0,0-1.235-1.238,2.631,2.631,0,0,0,1.235-1.238,2.626,2.626,0,0,0,1.235,1.238A2.618,2.618,0,0,0,62.461,458.679Z" fill="#d9b310"/>
      </g>
    </g>
    <g id="Group_88" data-name="Group 88" transform="translate(414.024 212)">
      <g id="Group_87" data-name="Group 87">
        <path id="Path_40" data-name="Path 40" d="M26.985,451.085c-.887-.279-.943-.338-1.222-1.24a.988.988,0,0,0-1.889,0c-.277.9-.334.958-1.221,1.237a.992.992,0,0,0,0,1.891c.887.279.944.337,1.221,1.236a.988.988,0,0,0,1.89,0c.277-.9.334-.959,1.22-1.238a.991.991,0,0,0,0-1.89Zm-2.165,1.5a.553.553,0,0,1,0-1.106.553.553,0,0,1,0,1.106Z" fill="#d9b310"/>
      </g>
    </g>
    <g id="Group_90" data-name="Group 90" transform="translate(414.024 212)">
      <g id="Group_89" data-name="Group 89">
        <path id="Path_41" data-name="Path 41" d="M51.414,453.657H31.759a.764.764,0,0,0-.764.764v9.4a.765.765,0,0,0,.764.764H51.414a.765.765,0,0,0,.764-.764v-9.4A.764.764,0,0,0,51.414,453.657Zm-17.729,9.4,2.134-3.265,2.135,3.265Zm6.094,0h0l-.894-1.367,2.665-4.074,3.558,5.441Zm2.577-7a.947.947,0,0,0-1.613,0L37.972,460.3l-1.346-2.06a.948.948,0,0,0-1.614,0l-2.489,3.807v-6.857H50.65v6.857l-2.422-3.7a.948.948,0,0,0-1.614,0l-1.383,2.116Zm4.578,7h0l-.79-1.207,1.277-1.953,2.067,3.16Z" fill="#d9b310"/>
      </g>
    </g>
    <g id="Group_107" data-name="Group 107" transform="translate(414.024 212)">
      <g id="Group_106" data-name="Group 106">
        <g id="Group_105" data-name="Group 105">
          <path id="Path_49" data-name="Path 49" d="M66.818,527.854H69.4V521.1H65.973a10.147,10.147,0,0,0-10.1-9.293,9.678,9.678,0,0,0-8.072,4.248c-.125-.008-.25-.024-.376-.024a5.914,5.914,0,0,0-5.362,3.435A10.972,10.972,0,0,0,20.436,521.1H17.014v6.759H19.57a16.817,16.817,0,0,0,4.569,10.7l2.169,20.613c.036,2.354,2.74,4.176,5.069,4.176H55.034c2.329,0,5.033-1.821,5.069-4.176l2.169-20.613A16.815,16.815,0,0,0,66.818,527.854Zm-4.222,7.61.8-7.61h1.731A15.1,15.1,0,0,1,62.6,535.464ZM47.429,517.715a3.947,3.947,0,0,1,3.492,2.113l1.462-.847a5.875,5.875,0,0,0-2.773-2.519,7.943,7.943,0,0,1,6.268-2.973,8.461,8.461,0,0,1,8.406,7.6H43.29A4.231,4.231,0,0,1,47.429,517.715Zm20.277,5.069v3.379H37.29v-.844a2.539,2.539,0,0,1,2.535-2.535H67.706Zm-36.33-10.138a9.3,9.3,0,0,1,9.25,8.449h-.8A4.23,4.23,0,0,0,35.6,525.32v7.6a2.535,2.535,0,0,1-5.07,0V521.1H22.123A9.306,9.306,0,0,1,31.376,512.646ZM21.26,527.854h1.751l.8,7.581A15.1,15.1,0,0,1,21.26,527.854ZM18.7,526.163v-3.379H28.841v3.379Zm39.713,32.863,0,.088c0,1.306-1.9,2.535-3.38,2.535H31.376c-1.477,0-3.379-1.229-3.379-2.535l-1.979-18.82a16.809,16.809,0,0,0,9.583,3.571V545.6H50.809v-1.733a16.789,16.789,0,0,0,9.582-3.585ZM37.29,543.906v-1.689H49.119v1.689Zm23.359-6.093a15.152,15.152,0,0,1-9.841,4.36v-1.647H35.6v1.648a15.143,15.143,0,0,1-9.845-4.374l-1.045-9.947h4.13v5.069a4.225,4.225,0,0,0,8.45,0v-5.069H61.7Z" fill="#d9b310"/>
          <path id="Path_50" data-name="Path 50" d="M65.171,550.665A4.225,4.225,0,1,0,69.4,554.89,4.231,4.231,0,0,0,65.171,550.665Zm0,6.76a2.535,2.535,0,1,1,2.535-2.535A2.538,2.538,0,0,1,65.171,557.425Z" fill="#d9b310"/>
          <rect id="Rectangle_17" data-name="Rectangle 17" width="1.689" height="1.689" transform="translate(30.531 558.27)" fill="#d9b310"/>
          <rect id="Rectangle_18" data-name="Rectangle 18" width="1.69" height="1.689" transform="translate(33.91 558.27)" fill="#d9b310"/>
          <rect id="Rectangle_19" data-name="Rectangle 19" width="1.69" height="1.689" transform="translate(54.188 558.27)" fill="#d9b310"/>
          <path id="Path_51" data-name="Path 51" d="M48.273,550.665a2.535,2.535,0,1,0,2.535-2.534A2.538,2.538,0,0,0,48.273,550.665Zm3.38,0a.845.845,0,1,1-.845-.844A.846.846,0,0,1,51.653,550.665Z" fill="#d9b310"/>
        </g>
      </g>
    </g>
    <path id="Path_55" data-name="Path 55" d="M69.623,399.079H67.716l-2.843,1.5a4.205,4.205,0,0,0-1.012-.416l-3.576-.895v-.407a5.96,5.96,0,0,0,2.547-4.871V392.5a6.1,6.1,0,0,0-5.759-6.152c-.161-.005-.32,0-.479.009l.927-2.17L53.026,379.7l-2.65,1.724A14.257,14.257,0,0,0,47.2,380.1l-.654-3.092H40.076l-.655,3.092a14.473,14.473,0,0,0-3.177,1.318L33.595,379.7,29.1,384.188l.912,2.172c-.035,0-.068-.008-.1-.009a5.944,5.944,0,0,0-6.124,5.939v1.7a5.956,5.956,0,0,0,2.546,4.87v.408L24,399.847l-4.228-2.465H17V414.97l8.351,2.783h1.626l.2-.711,2.56,1.536a2.642,2.642,0,0,0,2.548,2.56,2.643,2.643,0,0,0,2.547,2.547,2.642,2.642,0,0,0,2.546,2.547,2.64,2.64,0,0,0,4.128,2.1l.752.664a2.589,2.589,0,0,0,1.708.645h.157a2.585,2.585,0,0,0,2.58-2.55,2.582,2.582,0,0,0,2.546-2.546,2.582,2.582,0,0,0,2.546-2.549,2.61,2.61,0,0,0,2.55-2.605,2.414,2.414,0,0,0-.013-.254l15.291-7.645V399.079ZM61.135,392.5v1.483a4.258,4.258,0,0,1-2.125,3.673l-.424.245,0,2.687,4.24,1.059-9.334,4.914v-2.287a4.226,4.226,0,0,0-1.215-2.958l2.913-.728V397.9l-.423-.246a4.253,4.253,0,0,1-2.123-3.671v-1.7a4.244,4.244,0,0,1,4.376-4.241A4.388,4.388,0,0,1,61.135,392.5ZM44.59,405.9l-3.842-1.229a10.474,10.474,0,0,0-5.439-.247l-.486.108v-.252a2.544,2.544,0,0,1,1.928-2.471l4.862-1.215V397.9l-.424-.246a4.253,4.253,0,0,1-2.123-3.671v-1.7a4.243,4.243,0,0,1,4.375-4.241,4.388,4.388,0,0,1,4.112,4.455v1.483a4.26,4.26,0,0,1-2.124,3.673L45,397.9l0,2.687,4.861,1.215a2.544,2.544,0,0,1,1.928,2.471v3.181l-.209.11h-.52l-5.218-1.492A5.4,5.4,0,0,0,44.59,405.9Zm-9.577-16.182a9.33,9.33,0,0,1,16.56-.068,5.9,5.9,0,0,0-.624,2.644v1.7a5.956,5.956,0,0,0,2.546,4.87v.408l-3.4.85-3.4-.85v-.407a5.958,5.958,0,0,0,2.548-4.871V392.5a6.1,6.1,0,0,0-5.759-6.152,5.942,5.942,0,0,0-6.125,5.939v1.7a5.954,5.954,0,0,0,2.547,4.87v.408l-3.4.85-3.4-.85v-.407a5.96,5.96,0,0,0,2.547-4.871V392.5A6.25,6.25,0,0,0,35.013,389.714Zm-3.9-5.133,2.712-2.711,2.387,1.553.456-.28a12.688,12.688,0,0,1,3.676-1.524l.522-.125.591-2.785H45.17l.589,2.784.522.124a12.712,12.712,0,0,1,3.675,1.525l.457.28,2.387-1.554,2.708,2.709-.963,2.255a5.97,5.97,0,0,0-1.792,1.19c-.034.035-.064.071-.1.105a11.022,11.022,0,0,0-18.72.052,5.946,5.946,0,0,0-1.873-1.327Zm-3.077,16.01V397.9l-.423-.246a4.253,4.253,0,0,1-2.123-3.671v-1.7a4.244,4.244,0,0,1,4.376-4.241,4.388,4.388,0,0,1,4.113,4.455v1.483a4.258,4.258,0,0,1-2.125,3.673l-.424.245,0,2.687,2.912.728a4.226,4.226,0,0,0-1.215,2.958v.629l-2.647.588.069-.24.033-1.568L26.1,401.075Zm-9.337-1.512h.619l6.1,3.561-3.08,12.32-3.643-1.215Zm6.929,16.976-1.671-.556,2.993-11.969,1.936,1.129v.242L25.7,416.054h-.072Zm5.8,2.444a.963.963,0,0,1,.278-.674l1.492-1.492a.952.952,0,0,1,1.347,1.347l-1.493,1.491a.951.951,0,0,1-1.624-.672Zm2.546,2.546a.961.961,0,0,1,.278-.673l1.493-1.492a.952.952,0,0,1,1.346,1.346L35.6,421.718a.952.952,0,0,1-1.625-.673Zm2.546,2.546a.958.958,0,0,1,.279-.672l1.492-1.492a.952.952,0,1,1,1.346,1.346l-1.492,1.492a.952.952,0,0,1-1.625-.674Zm3.5,3.5a.952.952,0,0,1-.673-1.624l1.492-1.492a.952.952,0,0,1,1.346,1.347l-1.492,1.491A.957.957,0,0,1,40.018,427.089Zm4.1.849h-.157a.872.872,0,0,1-.584-.223l-.635-.56.638-.638a2.615,2.615,0,0,0,.534-.788l.772.642a.887.887,0,0,1-.568,1.567Zm7.611-7.639h-.146a.91.91,0,0,1-.584-.212l-4.6-3.836-1.088,1.3,4.47,3.725a.886.886,0,0,1-.568,1.565H49.03a.883.883,0,0,1-.566-.2l-4.61-3.842-1.087,1.3,4.469,3.725a.885.885,0,0,1-.567,1.565,1.4,1.4,0,0,1-.894-.323l-1.894-1.579A2.636,2.636,0,0,0,41.6,422.01a2.643,2.643,0,0,0-2.546-2.547,2.643,2.643,0,0,0-2.546-2.547A2.643,2.643,0,0,0,32,415.136L30.5,416.628a2.464,2.464,0,0,0-.238.29l-2.607-1.565,2.286-8,5.73-1.274a8.737,8.737,0,0,1,4.554.207l1.25.4-4.238,2.119a2.829,2.829,0,0,0-1.571,2.544v.168a2.843,2.843,0,0,0,4.306,2.438l3.161-1.9a1.753,1.753,0,0,1,2.036.2l7.171,6.453a.913.913,0,0,1-.611,1.591Zm16.192-9.861-14.3,7.149c-.047-.049-.1-.1-.146-.142l-7.17-6.454a3.42,3.42,0,0,0-4.045-.392l-3.162,1.9a1.133,1.133,0,0,1-.587.162,1.146,1.146,0,0,1-1.146-1.145v-.168A1.138,1.138,0,0,1,38,410.319l4.735-2.367a3.687,3.687,0,0,1,2.645-.245l5.334,1.523,1.292.032,15.917-8.377v9.553Z" transform="translate(414.024 212)" fill="#d9b310"/>
    <g id="Group_111" data-name="Group 111" transform="translate(414.024 212)">
      <path id="Path_57" data-name="Path 57" d="M69.722,595.7a.873.873,0,0,0-.952-.723,3.907,3.907,0,0,0-3.568,4.059l.158,6.357a4.956,4.956,0,0,0-3.988,2.756L59.01,613.03a5.61,5.61,0,0,1-1.567,1.946l-.491.387a9.739,9.739,0,0,0-3.741,8.114l-.965-.452a.887.887,0,0,0-1.17.408l-2.589,5.349a.855.855,0,0,0,.415,1.149l11.932,5.59a.887.887,0,0,0,.671.035.875.875,0,0,0,.5-.442l2.59-5.349a.857.857,0,0,0-.415-1.15l-.509-.238-.127-1.673a2.5,2.5,0,0,1,.583-1.806l6.18-7.355c.012-.014.024-.029.036-.046a9.971,9.971,0,0,0,1.916-6.005.7.7,0,0,0-.011-.121ZM60.8,633.593l-10.348-4.848,1.835-3.79L62.632,629.8Zm8.137-17.126-6.16,7.332a4.2,4.2,0,0,0-.981,3.034l.053.689-6.782-3.177a8.023,8.023,0,0,1,2.987-7.636l.491-.388A7.351,7.351,0,0,0,60.6,613.77l2.362-4.877a3.227,3.227,0,0,1,3.429-1.755l-3.453,7.13a.857.857,0,0,0,.418,1.143.883.883,0,0,0,1.166-.4l3.881-8.018a.855.855,0,0,0-.415-1.149,5.1,5.1,0,0,0-.865-.312l-.163-6.547a.154.154,0,0,0,0-.022,2.159,2.159,0,0,1,1.188-2.036L70.5,611.578a8.257,8.257,0,0,1-1.57,4.889Z" fill="#d9b310"/>
      <path id="Path_58" data-name="Path 58" d="M41.2,623.434a.884.884,0,0,0-1.169-.408l-.964.452a9.742,9.742,0,0,0-3.742-8.114l-.491-.387a5.611,5.611,0,0,1-1.567-1.946L30.9,608.153a4.956,4.956,0,0,0-3.988-2.756l.158-6.357a3.909,3.909,0,0,0-3.568-4.059.873.873,0,0,0-.952.723l-2.525,15.668a.971.971,0,0,0-.011.121,9.965,9.965,0,0,0,1.917,6.005.334.334,0,0,0,.036.046l6.179,7.355a2.491,2.491,0,0,1,.584,1.806l-.127,1.673-.509.238a.856.856,0,0,0-.415,1.15l2.589,5.349a.877.877,0,0,0,.5.442.889.889,0,0,0,.67-.035l11.932-5.59a.856.856,0,0,0,.416-1.149Zm-11.7.365-6.161-7.332a8.256,8.256,0,0,1-1.57-4.888l2.362-14.651a2.162,2.162,0,0,1,1.188,2.036.154.154,0,0,1,0,.022l-.163,6.547a4.989,4.989,0,0,0-.865.312.855.855,0,0,0-.415,1.149l3.882,8.018a.884.884,0,0,0,1.519.123.851.851,0,0,0,.065-.865l-3.452-7.13a3.227,3.227,0,0,1,3.429,1.755l2.361,4.877a7.354,7.354,0,0,0,2.054,2.551l.49.387a8.026,8.026,0,0,1,2.987,7.637l-6.783,3.177.053-.689A4.2,4.2,0,0,0,29.5,623.8Zm1.977,9.794-1.835-3.79,10.348-4.848,1.835,3.79Z" fill="#d9b310"/>
      <path id="Path_59" data-name="Path 59" d="M50.194,609.414v-3.846a8.14,8.14,0,0,0,4.588-7.246,7.958,7.958,0,0,0-2.6-5.881,8.956,8.956,0,0,0-6.59-2.326,8.8,8.8,0,0,0-5.735,2.566,7.957,7.957,0,0,0-2.366,5.611,8.053,8.053,0,0,0,4.588,7.254v3.867a2.339,2.339,0,0,0,.7,1.688,2.413,2.413,0,0,0,1.711.7h3.3a2.41,2.41,0,0,0,1.711-.7A2.326,2.326,0,0,0,50.194,609.414ZM39.228,598.3a6.271,6.271,0,0,1,1.884-4.409,7.039,7.039,0,0,1,4.588-2.052c.143-.008.284-.012.425-.012a7.162,7.162,0,0,1,4.863,1.871,6.262,6.262,0,0,1,2.058,4.625,6.56,6.56,0,0,1-4.066,5.916.88.88,0,0,0-.54.789v.623h-4.6V605a.882.882,0,0,0-.551-.793A6.445,6.445,0,0,1,39.228,598.3Zm8.558,11.773h-3.3a.652.652,0,0,1-.472-.189.628.628,0,0,1-.182-.469v-2.039h4.6v2.039a.626.626,0,0,1-.184.469A.646.646,0,0,1,47.786,610.072Z" fill="#d9b310"/>
      <path id="Path_60" data-name="Path 60" d="M45.26,583.893v3.761a.877.877,0,0,0,1.754,0v-3.761a.877.877,0,0,0-1.754,0Z" fill="#d9b310"/>
      <path id="Path_61" data-name="Path 61" d="M31.268,597.129a.863.863,0,1,0,0,1.726h3.98a.863.863,0,1,0,0-1.726Z" fill="#d9b310"/>
      <path id="Path_62" data-name="Path 62" d="M57.027,598.855h3.98a.863.863,0,1,0,0-1.726h-3.98a.863.863,0,1,0,0,1.726Z" fill="#d9b310"/>
      <path id="Path_63" data-name="Path 63" d="M38.463,591.525a.876.876,0,0,0,.815-.543.854.854,0,0,0-.21-.945l-2.834-2.648a.89.89,0,0,0-1.24.031.854.854,0,0,0,.032,1.221l2.834,2.647A.874.874,0,0,0,38.463,591.525Z" fill="#d9b310"/>
      <path id="Path_64" data-name="Path 64" d="M57.28,587.42a.889.889,0,0,0-1.24-.031l-2.833,2.648a.853.853,0,0,0-.255.83.863.863,0,0,0,.607.629.885.885,0,0,0,.856-.208l2.834-2.647A.853.853,0,0,0,57.28,587.42Z" fill="#d9b310"/>
    </g>
    <g id="Group_114" data-name="Group 114" transform="translate(414.024 212)">
      <g id="Group_113" data-name="Group 113">
        <path id="Path_73" data-name="Path 73" d="M71.254,673.042a.762.762,0,0,0,.762-.762v-10.6a2.9,2.9,0,0,0-5.764-.479c-7.9-.058-7.7.129-8.316-.169a32.5,32.5,0,0,1-2.995-1.778.762.762,0,0,0-.832,1.277c2.766,1.8,3.569,2.194,4.566,2.194h7.537v14.763H63.46a3.353,3.353,0,0,0-.853-1.757c-9.337-10.519-8.64-9.748-9.049-9.756a10.73,10.73,0,0,1-7.354-2.989,1.82,1.82,0,0,0-2.365-.084l-3.817,3.473a2.227,2.227,0,0,1-1.583.578c-1.661-.062-2.327-1.633-1.447-2.583,2.2-2.375,2.712-2.927,2.8-3.021-.023.025-.058.062.014-.017a14.17,14.17,0,0,1,4.083-3.236,6.7,6.7,0,0,1,7.234.342.761.761,0,1,0,.926-1.209,8.089,8.089,0,0,0-8.575-.625c-1.956-.541-3.338-.609-4.216-.205-2.51,1.155-5.357,4.157-6.344,4.635-.619.3-.59.113-7.135.168a2.9,2.9,0,0,0-5.764.48v2.369a.762.762,0,1,0,1.524,0V661.68a1.379,1.379,0,1,1,2.757,0v16.8a1.379,1.379,0,1,1-2.757,0v-10.6a.762.762,0,1,0-1.524,0v10.6a2.9,2.9,0,0,0,5.754.533h3.405a3.246,3.246,0,0,0,3.276,2.51,3.244,3.244,0,0,0,3.328,3.7,3.245,3.245,0,0,0,3.328,3.7A3.254,3.254,0,0,0,44.5,691.8l1.625-1.461a3.355,3.355,0,0,0,5.5-2.368,3.336,3.336,0,0,0,4.247-2.922,3.35,3.35,0,0,0,4.121-3.681,3.348,3.348,0,0,0,3.362-2.354H66.26a2.9,2.9,0,0,0,5.754-.533v-2.545a.762.762,0,1,0-1.524,0v2.545a1.378,1.378,0,1,1-2.756,0v-16.8a1.378,1.378,0,1,1,2.756,0v10.6A.764.764,0,0,0,71.254,673.042Zm-40.563,4.723a1.728,1.728,0,0,1,.494-.778c1.993-1.79,2.158-2.038,2.7-2.183a1.728,1.728,0,0,1,1.609,2.951l-2,1.8A1.727,1.727,0,0,1,30.691,677.765Zm3.693,5.363a1.729,1.729,0,0,1,.13-2.439l2-1.8a1.731,1.731,0,0,1,2.439.129h0a1.734,1.734,0,0,1,0,2.313c-.111.123-.018.023-2.131,1.928A1.73,1.73,0,0,1,34.384,683.128Zm3.328,3.7a1.728,1.728,0,0,1,.13-2.439c2.107-1.888,2.223-2.115,2.884-2.222a1.731,1.731,0,0,1,1.559.551h0a1.729,1.729,0,0,1-.129,2.438l-2,1.8A1.73,1.73,0,0,1,37.712,686.83Zm7.876,1.925c-.116.125.01,0-2.109,1.906a1.727,1.727,0,1,1-2.309-2.568c2.046-1.832,2.194-2.1,2.841-2.215a1.713,1.713,0,0,1,1.6.543h0A1.733,1.733,0,0,1,45.588,688.755Zm13.518-9.233a.762.762,0,0,0-1.023,1.108,1.831,1.831,0,0,1-2.669,2.5.762.762,0,0,0-1.214.868,1.834,1.834,0,0,1-3.049,1.964l-.191-.206a.762.762,0,0,0-1.182.957,1.833,1.833,0,0,1-2.632,2.493,3.261,3.261,0,0,0-2.921-4.879,3.256,3.256,0,0,0-3.333-3.7,3.25,3.25,0,0,0-3.327-3.7,3.24,3.24,0,0,0-.8-2.627h0a3.251,3.251,0,0,0-4.591-.244c-2.081,1.876-2.024,1.809-2.194,1.988a3.247,3.247,0,0,0-.79,1.445H25.82V662.722c6.179-.094,6.628.226,7.758-.321,1.287-.623,3.99-3.551,6.317-4.621a3.081,3.081,0,0,1,1.655-.047c-2.415,1.71-3.854,3.8-5.676,5.6-1.792,1.935-.4,5.158,2.666,5.143a3.749,3.749,0,0,0,2.507-.976l3.778-3.436a.294.294,0,0,1,.3,0,12.206,12.206,0,0,0,8.065,3.422c9.014,10.08,8.319,9.3,8.417,9.426a3.418,3.418,0,0,1,.357,1.27A1.832,1.832,0,0,1,59.106,679.522Z" fill="#d9b310"/>
      </g>
    </g>
    <g id="Group_117" data-name="Group 117" transform="translate(414.024 212)">
      <path id="Path_75" data-name="Path 75" d="M67.9,742.683H61.418v-4.932l-2.244-.528A13.576,13.576,0,0,0,58,734.386l1.213-1.961-1.935-1.936,4.532-5.666a5.956,5.956,0,1,0-2.815-6.363l-14.63-.944a5.943,5.943,0,1,0-.1,1.7l14.63.943a5.928,5.928,0,0,0,1.592,3.6l-4.415,5.52-1.419-1.42-1.96,1.213a13.587,13.587,0,0,0-2.838-1.176l-.529-2.244H42.86l-.528,2.244a13.449,13.449,0,0,0-2.837,1.176l-1.96-1.213-4.567,4.566,1.213,1.961A13.579,13.579,0,0,0,33,737.223l-2.243.528v4.932H24.274L20.016,751.2h3.933v13.626H68.23V751.2h3.933Zm-3.081-27.25a4.258,4.258,0,1,1-4.258,4.258A4.263,4.263,0,0,1,64.824,715.433Zm-26.4,6.812a4.258,4.258,0,1,1,4.257-4.258A4.263,4.263,0,0,1,38.425,722.245ZM69.407,749.5H51.725l-2.555-5.109H66.853Zm-26.258-6.813a3.364,3.364,0,0,1-.466-1.7,3.406,3.406,0,1,1,6.813,0,3.365,3.365,0,0,1-.465,1.7Zm-5.385,0a8.516,8.516,0,1,1,16.652,0H50.9a5.11,5.11,0,1,0-9.625,0Zm-5.3-3.583,1.935-.456.124-.506a11.8,11.8,0,0,1,1.379-3.324l.271-.446-1.047-1.692,2.66-2.658,1.691,1.046.446-.271a11.812,11.812,0,0,1,3.325-1.379l.507-.125.455-1.934h3.761l.456,1.936.507.123a11.807,11.807,0,0,1,3.324,1.38l.447.271,1.691-1.047,2.659,2.66-1.046,1.69.271.446a11.851,11.851,0,0,1,1.379,3.324l.125.508,1.934.454v3.583H56.164a10.219,10.219,0,1,0-20.144,0H32.466V739.1Zm-7.138,5.287H44.712L42.157,749.5H22.771Zm.325,6.812H43.209l2.88-5.761v17.683H25.651Zm40.876,11.922H47.792V745.438l2.88,5.761H66.527Z" fill="#d9b310"/>
    </g>
  </g>
</svg>
