<svg xmlns="http://www.w3.org/2000/svg" xmlns:xlink="http://www.w3.org/1999/xlink" width="45.95" height="25.766" viewBox="0 0 45.95 25.766"><defs><linearGradient id="a" x1="0.5" x2="0.5" y2="1" gradientUnits="objectBoundingBox"><stop offset="0" stop-color="#2b3"/><stop offset="1" stop-color="#005d0a"/></linearGradient></defs><g transform="translate(0 -134.412)"><g transform="translate(0 134.412)"><path d="M17.026,152.5a3.838,3.838,0,1,0,3.835,3.841A3.836,3.836,0,0,0,17.026,152.5Zm0,5.759a1.918,1.918,0,1,1,1.918-1.918A1.92,1.92,0,0,1,17.026,158.261Zm28.924-8.6v4.1a1.85,1.85,0,0,1-1.85,1.85H42.121a5.075,5.075,0,0,0-10.044,0H22.046a5.072,5.072,0,0,0-10.038,0H9.53a1.85,1.85,0,0,1-1.85-1.85v-4.1ZM37.1,152.5a3.838,3.838,0,1,0,3.835,3.841A3.842,3.842,0,0,0,37.1,152.5Zm0,5.759a1.918,1.918,0,1,1,1.918-1.918A1.92,1.92,0,0,1,37.1,158.261Zm8.12-12.72-7.269-7.189a2.471,2.471,0,0,0-1.733-.715H32.551v-1.375a1.847,1.847,0,0,0-1.85-1.85H9.528a1.851,1.851,0,0,0-1.85,1.85v.29l-7.506.865,13.3,1.732L0,140.487,13.426,142.4,0,143.56l7.679,1.448v3.634h38.27v-1.35A2.478,2.478,0,0,0,45.221,145.541Zm-3.169.24H35.017a.289.289,0,0,1-.29-.29V140.06a.29.29,0,0,1,.29-.29h1.338a.313.313,0,0,1,.2.08l5.691,5.432A.289.289,0,0,1,42.052,145.781Z" transform="translate(0 -134.412)" fill="url(#a)"/></g></g></svg>