<svg xmlns="http://www.w3.org/2000/svg" width="16" height="16" viewBox="0 0 16 16"><g transform="translate(0 0)"><path d="M13.327,1.813c0-.009-.008-.017-.01-.025a.246.246,0,0,0-.018-.043.256.256,0,0,0-.03-.045.272.272,0,0,0-.03-.032.242.242,0,0,0-.044-.029.2.2,0,0,0-.095-.031L13.066,1.6H11.722c-.069-.928-.5-1.6-1.055-1.6S9.68.672,9.611,1.6H9.055C8.986.672,8.556,0,8,0S7.013.672,6.944,1.6H6.389C6.32.672,5.889,0,5.333,0S4.346.672,4.278,1.6H3.722C3.653.672,3.222,0,2.666,0S1.68.672,1.611,1.6H.266A.267.267,0,0,0,0,1.867V15.733A.267.267,0,0,0,.266,16h12.8a.267.267,0,0,0,.267-.267v-.8h2.4a.267.267,0,0,0,.261-.32ZM10.666.533c.193,0,.461.409.521,1.067h-1.04C10.205.942,10.474.533,10.666.533ZM8,.533c.193,0,.461.409.521,1.067H7.48C7.538.942,7.807.533,8,.533Zm-2.667,0c.193,0,.461.409.521,1.067H4.814C4.872.942,5.14.533,5.333.533Zm-2.667,0c.193,0,.461.409.521,1.067H2.147C2.205.942,2.474.533,2.666.533ZM.533,2.133H1.611c.069.928.5,1.6,1.055,1.6a.267.267,0,0,0,0-.533c-.193,0-.461-.409-.521-1.067H4.278c.07.928.5,1.6,1.055,1.6a.267.267,0,0,0,0-.533c-.193,0-.461-.409-.521-1.067H6.944c.07.928.5,1.6,1.055,1.6A.267.267,0,0,0,8,3.2c-.193,0-.461-.409-.521-1.067H9.611c.07.928.5,1.6,1.055,1.6a.267.267,0,0,0,0-.533c-.193,0-.461-.409-.521-1.067H12.8V4.8H.533ZM12.8,15.467H.533V5.333H12.8Zm.533-1.067V4.453L15.405,14.4Zm0,0" transform="translate(0)" fill="#373435"/><path d="M137.333,288h-1.067a.267.267,0,0,0-.267.267v1.067a.267.267,0,0,0,.267.267h1.067a.267.267,0,0,0,.267-.267v-1.067A.267.267,0,0,0,137.333,288Zm-.267,1.067h-.533v-.533h.533Zm0,0" transform="translate(-131.467 -278.4)" fill="#373435"/><path d="M217.333,288h-1.067a.267.267,0,0,0-.267.267v1.067a.267.267,0,0,0,.267.267h1.067a.267.267,0,0,0,.267-.267v-1.067A.267.267,0,0,0,217.333,288Zm-.267,1.067h-.533v-.533h.533Zm0,0" transform="translate(-208.8 -278.4)" fill="#373435"/><path d="M57.333,288H56.267a.267.267,0,0,0-.267.267v1.067a.267.267,0,0,0,.267.267h1.067a.267.267,0,0,0,.267-.267v-1.067A.267.267,0,0,0,57.333,288Zm-.267,1.067h-.533v-.533h.533Zm0,0" transform="translate(-54.134 -278.4)" fill="#373435"/><path d="M137.333,368h-1.067a.267.267,0,0,0-.267.267v1.067a.267.267,0,0,0,.267.267h1.067a.267.267,0,0,0,.267-.267v-1.067A.267.267,0,0,0,137.333,368Zm-.267,1.067h-.533v-.533h.533Zm0,0" transform="translate(-131.467 -355.733)" fill="#373435"/><path d="M217.333,368h-1.067a.267.267,0,0,0-.267.267v1.067a.267.267,0,0,0,.267.267h1.067a.267.267,0,0,0,.267-.267v-1.067A.267.267,0,0,0,217.333,368Zm-.267,1.067h-.533v-.533h.533Zm0,0" transform="translate(-208.8 -355.733)" fill="#373435"/><path d="M57.333,368H56.267a.267.267,0,0,0-.267.267v1.067a.267.267,0,0,0,.267.267h1.067a.267.267,0,0,0,.267-.267v-1.067A.267.267,0,0,0,57.333,368Zm-.267,1.067h-.533v-.533h.533Zm0,0" transform="translate(-54.134 -355.733)" fill="#373435"/><path d="M137.333,208h-1.067a.267.267,0,0,0-.267.267v1.067a.267.267,0,0,0,.267.267h1.067a.267.267,0,0,0,.267-.267v-1.067A.267.267,0,0,0,137.333,208Zm-.267,1.067h-.533v-.533h.533Zm0,0" transform="translate(-131.467 -201.067)" fill="#373435"/><path d="M217.333,208h-1.067a.267.267,0,0,0-.267.267v1.067a.267.267,0,0,0,.267.267h1.067a.267.267,0,0,0,.267-.267v-1.067A.267.267,0,0,0,217.333,208Zm-.267,1.067h-.533v-.533h.533Zm0,0" transform="translate(-208.8 -201.067)" fill="#373435"/><path d="M297.333,288h-1.067a.267.267,0,0,0-.267.267v1.067a.267.267,0,0,0,.267.267h1.067a.267.267,0,0,0,.267-.267v-1.067A.267.267,0,0,0,297.333,288Zm-.267,1.067h-.533v-.533h.533Zm0,0" transform="translate(-286.134 -278.4)" fill="#373435"/><path d="M297.333,368h-1.067a.267.267,0,0,0-.267.267v1.067a.267.267,0,0,0,.267.267h1.067a.267.267,0,0,0,.267-.267v-1.067A.267.267,0,0,0,297.333,368Zm-.267,1.067h-.533v-.533h.533Zm0,0" transform="translate(-286.134 -355.733)" fill="#373435"/><path d="M297.333,208h-1.067a.267.267,0,0,0-.267.267v1.067a.267.267,0,0,0,.267.267h1.067a.267.267,0,0,0,.267-.267v-1.067A.267.267,0,0,0,297.333,208Zm-.267,1.067h-.533v-.533h.533Zm0,0" transform="translate(-286.134 -201.067)" fill="#373435"/><path d="M57.333,208H56.267a.267.267,0,0,0-.267.267v1.067a.267.267,0,0,0,.267.267h1.067a.267.267,0,0,0,.267-.267v-1.067A.267.267,0,0,0,57.333,208Zm-.267,1.067h-.533v-.533h.533Zm0,0" transform="translate(-54.134 -201.067)" fill="#373435"/></g></svg>