<svg xmlns="http://www.w3.org/2000/svg" width="28.5" height="29.813" viewBox="0 0 28.5 29.813"><g transform="translate(-1561 -1832)"><g transform="translate(1100.87 1669.364)"><path d="M465.736,166.225H467.9c.552,0,1.1-.009,1.655.006a.818.818,0,0,0,.6-.226c1.115-.982,2.238-1.953,3.359-2.928.683-.594,1.043-.59,1.734.012,1.12.976,2.236,1.956,3.368,2.916a.957.957,0,0,0,.567.21c1.261.018,2.523.009,3.836.009v.369c0,.984.006,1.968,0,2.951a.559.559,0,0,0,.214.482c1.712,1.466,3.415,2.943,5.129,4.406a.692.692,0,0,1,.27.589q-.011,7.344-.006,14.689a2.626,2.626,0,0,1-2.573,2.734q-10.2.007-20.4,0c-.955,0-1.909,0-2.864,0a2.625,2.625,0,0,1-2.652-2.816q0-7.311-.006-14.621a.656.656,0,0,1,.253-.563c1.706-1.456,3.4-2.927,5.105-4.384a.656.656,0,0,0,.253-.566C465.729,168.424,465.736,167.351,465.736,166.225Zm1.011,1.06c-.009.085-.017.129-.017.172q0,4.729.006,9.457a.547.547,0,0,0,.187.346c1.308,1.157,2.626,2.3,3.933,3.459.179.158.285.14.453-.011.751-.674,1.515-1.332,2.273-2a1.027,1.027,0,0,1,1.61.013c.757.667,1.521,1.324,2.272,2a.265.265,0,0,0,.427,0c1.317-1.163,2.643-2.315,3.957-3.481a.585.585,0,0,0,.173-.386q.015-4.611.008-9.222c0-.117-.01-.235-.016-.351Zm18.478,23.049.027-.078-10.874-9.51L463.5,190.264l.037.069Zm1.36-1.642V175.843l-7.344,6.426Zm-17.07-6.424-7.344-6.422v12.848Zm13.533-9.676v3.616l2.073-1.818Zm-17.337,3.619v-3.621l-2.076,1.8ZM473.06,166.2H475.7l-1.32-1.146Z" transform="translate(0 0)" fill="#fafafa"/><path d="M602.374,326.09q2.747,0,5.495,0a.539.539,0,0,1,.6.5.555.555,0,0,1-.543.563,2.837,2.837,0,0,1-.313.008l-4.382,0-6.155,0c-.551,0-.815-.173-.823-.532s.255-.54.8-.54Q599.714,326.088,602.374,326.09Z" transform="translate(-127.979 -152.505)" fill="#fafafa"/><path d="M602.349,261.157c1.809,0,3.618,0,5.426,0a.592.592,0,0,1,.667.43c.1.35-.2.653-.649.654-1.449,0-2.9,0-4.348,0l-6.4,0a2.241,2.241,0,0,1-.313-.007.561.561,0,0,1-.491-.544.555.555,0,0,1,.508-.527,2.508,2.508,0,0,1,.278,0Z" transform="translate(-127.97 -91.919)" fill="#fafafa"/><path d="M602.329,359.335h-5.392c-.438,0-.7-.213-.7-.55s.265-.531.684-.531l10.853,0c.275,0,.538.06.615.343a.65.65,0,0,1-.087.532.829.829,0,0,1-.552.2c-1.809.014-3.618.009-5.426.009Z" transform="translate(-127.967 -182.512)" fill="#fafafa"/><path d="M602.4,294.691h-5.182a3.438,3.438,0,0,1-.451-.011.494.494,0,0,1-.453-.492.487.487,0,0,1,.4-.534,1.426,1.426,0,0,1,.345-.027q5.356,0,10.711,0a2,2,0,0,1,.243.008.545.545,0,0,1,.511.553.528.528,0,0,1-.559.5c-.811.007-1.623,0-2.434,0Z" transform="translate(-128.039 -122.214)" fill="#fafafa"/></g></g></svg>